PathFileType	4	(X/Y/Z)	C:\Users\WrightLab\Desktop\Jo\P1_boxCal31.trc
DataRate	CameraRate	NumFrames	NumMarkers	Units	OrigDataRate	OrigDataStartFrame	OrigNumFrames
100.00	100.00	       22	19	mm	100.00	556	       740
Frame#	Time	Headset_Front			Headset_Back			Headset_Left			Headset_Right			Left_Shoulder			Right_Shoulder			Sternum			C7			Left Elbow			Right Elbow			Left Wrist			Right Wrist			Left ASIS			Right ASIS			S2			Left Knee			Right Knee			Left Ankle			Right Ankle			
		X1	Y1	Z1	X2	Y2	Z2	X3	Y3	Z3	X4	Y4	Z4	X5	Y5	Z5	X6	Y6	Z6	X7	Y7	Z7	X8	Y8	Z8	X9	Y9	Z9	X10	Y10	Z10	X11	Y11	Z11	X12	Y12	Z12	X13	Y13	Z13	X14	Y14	Z14	X15	Y15	Z15	X16	Y16	Z16	X17	Y17	Z17	X18	Y18	Z18	X19	Y19	Z19	

556	5.550	-219.49913	1457.50366	1981.53455				-20.27556	1493.10791	1929.92114				112.83144	1316.92908	1907.51453	-230.04865	1291.99585	1762.48181	-133.19838	1210.36279	1960.22498				185.94243	991.95197	1944.37451	-257.02515	1025.70764	1654.96741	210.73592	831.94421	2086.84424	-353.06580	803.27063	1643.92761	-32.81223	934.61224	2036.66260	-219.77304	923.17505	1960.38269	5.60992	901.11572	1708.16040	168.08011	497.03091	2011.13513	-223.41039	496.36722	1946.77795	262.64597	278.71786	1749.66125	-71.22414	120.18153	2042.41345	
557	5.560	-224.88515	1459.85254	1987.17310				-25.13144	1495.21021	1937.74304				108.55124	1317.36243	1917.63403	-233.28061	1294.30542	1769.57104	-137.95691	1212.04260	1966.92249				181.56975	992.78345	1959.61365				205.57240	832.83044	2099.61475	-360.80154	804.90607	1658.96643	-40.77058	935.89099	2045.04907	-226.71007	925.06689	1965.90466	2.04273	902.76294	1719.25854	157.71851	499.81329	2030.91467	-226.54501	494.16989	1945.42566	254.00578	280.42313	1773.35498	-71.78056	120.54933	2042.49585	
558	5.570	-229.94316	1460.57214	1991.99341				-29.60572	1496.04834	1945.70654				104.32899	1317.62415	1927.39294	-235.57918	1296.86255	1775.13196	-143.35152	1214.45215	1973.98950							-268.00879	1029.55334	1670.96057	199.07805	833.39203	2111.25854	-368.09073	806.62329	1672.09827	-48.76974	937.02362	2053.47925	-233.45912	926.87567	1970.26086				147.78651	504.25217	2053.26978	-229.80994	491.67371	1944.17566	245.20816	279.76852	1798.70959	-72.28168	121.02703	2042.77466	
559	5.580	-235.17497	1462.49524	1997.11084				-34.12000	1497.26477	1953.75439				99.72983	1318.18054	1937.83289	-238.34602	1298.94153	1781.59656	-148.98865	1215.49548	1980.11951										191.70598	832.67175	2122.36011	-375.63492	808.72437	1686.43274	-56.79476	939.03784	2062.03955	-239.28262	929.00977	1974.86560				135.71758	509.19644	2074.32593	-232.87219	490.31638	1944.60193	235.98997	278.90115	1824.37537	-72.75378	121.08557	2043.25159	
560	5.590	-240.29482	1464.86365	2001.89856				-38.82217	1499.53369	1961.81689				95.00006	1318.61682	1947.14880				-154.05884	1217.53271	1985.88599										185.06770	834.49713	2135.11328	-382.37381	810.69635	1700.80371	-64.88844	939.95044	2069.07764	-245.15552	931.27271	1979.42737	-6.29330	908.62317	1746.17578	123.34258	513.10522	2093.80493	-235.33281	488.64496	1943.96997	227.13072	276.50018	1851.56531	-72.80050	120.91788	2043.12427	
561	5.600	-245.32729	1467.10693	2006.11243				-42.81633	1500.41382	1968.77600				90.32634	1319.47400	1958.43542				-160.07016	1219.86353	1992.64172										178.62413	835.86621	2147.13062	-389.13727	812.08813	1715.94019	-72.89902	941.85895	2077.87134	-251.76834	933.29346	1983.28394	-8.32791	911.85321	1752.50183	109.64820	517.33441	2111.68726	-236.10681	489.16177	1938.55273	216.04443	274.74622	1878.11316	-72.80192	120.86177	2043.14685	
562	5.610	-250.26283	1469.14539	2010.80554				-47.09074	1500.78857	1976.45215				85.43610	1320.11926	1967.55823				-165.94983	1221.43774	1998.29749										172.32225	837.69385	2158.83447	-395.53821	814.63831	1731.14661	-81.73837	943.70996	2085.01611	-257.72751	935.67755	1986.92126	-10.73334	914.05127	1759.07471	96.90248	521.38000	2129.81567	-237.70900	488.70325	1936.80493	207.38705	268.68719	1907.62317	-73.38435	121.28703	2043.69019	
563	5.620	-254.98051	1471.09302	2014.33606				-51.41917	1502.31775	1983.52039				80.27134	1320.83557	1978.11804				-172.17593	1223.90161	2004.57019										165.43141	839.35144	2171.36304	-401.67371	817.04669	1745.38672	-90.33787	944.83942	2092.06323	-263.27539	937.69318	1990.66748	-11.84462	914.35590	1766.18127	83.12870	524.47614	2145.07593	-238.88774	488.05173	1935.33508	196.55745	264.90887	1935.65698	-73.33289	121.34456	2043.89636	
564	5.630	-259.71234	1473.39368	2018.59241				-55.67793	1503.70508	1991.58142				74.56250	1321.23596	1988.17896				-178.31628	1225.74084	2010.15991										158.16924	841.31250	2183.72485	-408.00018	820.09430	1761.59351	-99.16090	947.98462	2101.03687	-269.27283	939.25201	1993.21960	-13.03337	915.15881	1779.83801	69.12812	530.34869	2163.08716	-239.55569	487.26257	1934.61096	185.29745	259.83966	1964.29358	-73.35561	121.23372	2043.84985	
565	5.640	-264.81149	1475.57727	2022.55859				-60.24572	1504.46228	1999.18005				68.98357	1322.66675	1998.48584				-183.98781	1227.29700	2014.32056										151.15089	842.10181	2193.59033	-413.83728	822.81976	1774.27527	-107.73676	949.81018	2107.53491	-275.36624	941.02454	1995.47046	-14.41713	916.66345	1787.90295	55.14919	535.26093	2179.53247	-240.16905	486.66522	1934.15527	173.82631	253.44453	1992.69531	-73.35580	121.18723	2043.87329	
566	5.650	-269.96753	1477.97449	2027.10779				-64.76797	1505.19678	2006.24268				63.65619	1322.93823	2007.62610				-190.40103	1229.14734	2020.44287										142.78668	843.85461	2204.49219	-418.95120	825.13013	1790.11865	-116.99280	952.21796	2114.45313	-281.31674	942.70233	1998.51868	-15.04507	916.73999	1797.52380	42.66272	540.23578	2196.13159	-240.91806	486.29306	1934.45776	161.47681	246.52373	2021.03247	-73.39700	121.04268	2043.75952	
567	5.660	-275.13092	1480.23999	2031.04102				-69.43884	1506.39709	2014.45105				58.31610	1323.92664	2018.38904				-196.64680	1229.87732	2024.07007										135.38010	845.01727	2216.16382	-423.54785	828.76459	1803.08887	-126.05257	953.54401	2120.45068	-287.17984	944.76648	2001.68652	-16.11607	917.93579	1805.06763	28.05042	540.94312	2204.78149	-241.89119	486.23517	1935.70911	148.09581	239.98473	2051.12646	-73.90759	121.65418	2044.53479	
568	5.670	-280.38977	1482.62988	2035.11963				-73.85575	1506.79382	2021.05908				51.51849	1322.45850	2025.53528				-202.42188	1231.05750	2029.76782										128.66232	846.24420	2227.06274	-427.56372	831.52496	1816.17688	-135.06548	954.93719	2126.98315	-293.09943	946.73987	2004.68909	-17.11989	918.26544	1815.37817	14.10705	545.02496	2218.31201	-242.96593	486.21008	1937.84717	133.46245	233.87054	2079.26978	-73.83709	121.10012	2044.52441	
569	5.680	-285.42203	1484.59741	2038.39343				-78.36044	1507.93213	2028.18445				45.27391	1322.94666	2036.15149				-208.76628	1232.15698	2034.54529										121.11776	846.23676	2237.79028	-432.02875	835.19586	1830.70776	-144.21248	955.84900	2133.53149	-299.09818	947.52301	2007.00513	-17.71597	920.36041	1822.58691	-0.38451	549.00476	2231.95190	-244.01892	486.05420	1940.00732	118.69186	227.20325	2109.60938	-73.82345	121.12232	2044.57544	
570	5.690	-290.75952	1486.87329	2042.22498				-83.28931	1508.31824	2035.29553				39.24392	1322.91113	2046.07056				-215.35367	1232.05457	2038.80103										113.37926	846.53186	2248.63257	-435.60547	838.82721	1844.44116	-153.42683	956.12823	2139.23047	-304.87244	947.84967	2008.18933	-18.04532	920.26147	1835.57361	-13.66903	549.98547	2244.04956	-245.29195	486.13077	1941.74011	103.92326	220.84616	2140.80688	-73.82269	121.10801	2044.58643	
571	5.700	-295.00690	1487.75818	2043.51941				-87.90618	1508.60876	2042.45166				33.04574	1323.74817	2056.02368				-221.34753	1232.97705	2044.78528										104.62167	846.62091	2258.03442	-438.69125	841.40796	1856.94849	-162.74208	956.68665	2145.39771	-310.74756	947.51270	2009.86426	-19.00363	920.78595	1843.62402	-28.67399	551.64478	2254.53931	-246.54308	486.08224	1943.84766	88.29272	214.54297	2170.42871				
572	5.710	-300.35538	1489.80371	2046.93884				-93.71561	1509.20496	2050.14673				26.59270	1323.92627	2066.18091				-227.17065	1233.14172	2048.95825										97.01672	847.71954	2269.79688	-441.62408	845.07361	1871.04248	-172.32253	956.93555	2152.07886	-316.24554	947.97687	2011.36475	-19.68006	921.32275	1855.16052	-43.75342	551.37579	2263.97485	-248.15184	485.89218	1947.50464	71.96029	208.92722	2199.68604				
573	5.720	-305.54968	1491.68274	2049.67505				-98.76677	1509.28918	2056.93188				19.68234	1324.10803	2076.45410				-233.49730	1232.99817	2052.39526										89.02262	847.75250	2280.59521	-444.65265	848.44135	1883.09448	-181.70073	956.82678	2157.76782	-321.59137	947.27435	2013.42468				-58.13194	552.16870	2272.53394	-250.03990	485.98611	1950.24170	54.85928	202.89728	2228.88867				
574	5.730	-311.09531	1493.76575	2052.55200				-104.08826	1509.65796	2064.32837				12.72495	1323.73279	2086.99634				-239.63396	1232.75757	2057.64404										79.54600	846.72430	2289.19312	-447.03110	852.27942	1895.59656	-190.88040	955.95538	2162.75586	-326.36041	947.20386	2014.83435				-72.85604	552.45337	2282.47437	-251.59326	486.11951	1952.41138	36.26101	199.63153	2257.90894				
575	5.740	-316.73883	1495.52588	2054.73950				-109.46288	1509.69275	2071.45044				5.49272	1323.85376	2097.31641	-265.60925	1316.70410	1846.09692	-245.58426	1232.27856	2062.39063							-20.74681	923.76630	1881.02820	70.68044	847.42377	2301.12964	-449.73898	855.05469	1907.47876	-200.21904	954.62823	2168.05859	-331.89078	946.69476	2017.38623				-87.22958	551.80994	2289.81592	-253.26637	485.68314	1956.07214	15.67204	195.37263	2284.33667				
576	5.750	-322.30170	1497.33997	2057.11401				-115.30669	1509.48083	2078.07373				-1.56599	1323.57703	2107.23730				-252.01537	1230.93518	2065.92700							-20.88091	921.61932	1895.74231	60.67403	847.26624	2311.69458	-452.27219	858.90680	1916.49194	-209.59717	953.79633	2172.72681	-336.61734	945.53052	2017.20972				-100.81198	550.57269	2297.73022	-254.82843	485.45721	1958.98657	-5.23858	192.39050	2311.54956	-68.78625	160.00710	2330.06177	
577	5.760	-327.09308	1498.48877	2057.93042				-121.19035	1509.31226	2085.10571				-9.10111	1323.11450	2118.55615				-258.13321	1230.04370	2070.27417							-21.56339	921.43274	1908.13916	51.77959	845.66315	2321.10156	-454.94009	862.52063	1925.26318	-218.76001	952.71436	2177.89404	-341.01590	945.09583	2019.49927				-114.26566	549.18591	2302.97607	-256.64435	484.99521	1961.34375	-26.79652	190.40215	2336.77051	-92.82617	161.64255	2357.54248	
